<svg width="211" height="47" viewBox="0 0 211 47" fill="none" xmlns="http://www.w3.org/2000/svg">
<path d="M25.136 1.2C25.8613 1.2 26.224 3.09866 26.224 6.896C26.224 10.6507 25.8613 12.528 25.136 12.528H13.424V19.824H21.232C21.9573 19.824 22.32 21.488 22.32 24.816C22.32 28.1013 21.9787 29.744 21.296 29.744H13.424V45.168C13.424 45.7653 12.6133 46.1493 10.992 46.32C9.41333 46.5333 8.09067 46.64 7.024 46.64L4.016 46.512C1.92533 46.256 0.88 45.8293 0.88 45.232V2.864C0.88 2.18133 1.008 1.73333 1.264 1.52C1.56267 1.30666 1.98933 1.2 2.544 1.2H25.136ZM43.4585 45.936C43.4585 46.2347 41.5172 46.384 37.6345 46.384C33.7518 46.2987 31.8105 46.128 31.8105 45.872V24.624H30.0825C29.3998 24.624 28.8452 24.2187 28.4185 23.408C28.0345 22.5547 27.8425 21.5093 27.8425 20.272C27.8425 15.664 29.2078 13.36 31.9385 13.36C33.8585 13.36 35.4585 13.9573 36.7385 15.152C38.0185 16.304 38.6585 17.6267 38.6585 19.12C39.5545 17.3707 40.7492 15.984 42.2425 14.96C43.7785 13.8933 45.3358 13.36 46.9145 13.36C49.3892 13.36 50.8825 14 51.3945 15.28C51.5225 15.6213 51.5865 16.1333 51.5865 16.816C51.5865 17.456 51.3732 18.6293 50.9465 20.336C50.5625 22.0427 50.1572 23.28 49.7305 24.048C49.3038 24.816 49.0478 25.2 48.9625 25.2C48.8772 25.2 48.4718 25.0507 47.7465 24.752C47.0638 24.4107 46.4452 24.24 45.8905 24.24C44.2692 24.24 43.4585 25.52 43.4585 28.08V45.936ZM79.0095 44.272C76.3215 45.8507 72.8655 46.64 68.6415 46.64C64.4175 46.64 60.8548 45.2107 57.9535 42.352C55.0522 39.4507 53.6015 35.4613 53.6015 30.384C53.6015 25.264 54.9882 21.1467 57.7615 18.032C60.5775 14.9173 64.1188 13.36 68.3855 13.36C72.6522 13.36 75.9375 14.448 78.2415 16.624C80.5882 18.8 81.7615 21.4453 81.7615 24.56C81.7615 31.472 77.7935 34.928 69.8575 34.928H65.4415C65.4415 36.208 65.7828 37.104 66.4655 37.616C67.1908 38.0853 68.2362 38.32 69.6015 38.32C72.5882 38.32 75.4255 37.6373 78.1135 36.272C78.1562 36.2293 78.3482 36.528 78.6895 37.168C79.7135 39.0027 80.2255 40.56 80.2255 41.84C80.2255 43.0773 79.8202 43.888 79.0095 44.272ZM71.0095 25.776C71.0095 23.984 70.1348 23.088 68.3855 23.088C67.5748 23.088 66.8708 23.344 66.2735 23.856C65.7188 24.3253 65.4415 25.0293 65.4415 25.968V27.952H68.8975C70.3055 27.952 71.0095 27.2267 71.0095 25.776ZM87.2865 34.48C90.7425 36.5707 93.4732 37.616 95.4785 37.616C96.7585 37.616 97.3985 37.168 97.3985 36.272C97.3985 35.632 96.2892 34.8 94.0705 33.776C88.7372 31.6 86.0705 28.0373 86.0705 23.088C86.0705 19.9307 87.2225 17.52 89.5265 15.856C91.8305 14.192 94.5825 13.36 97.7825 13.36C101.025 13.36 103.756 13.7013 105.975 14.384C108.236 15.0667 109.367 15.9627 109.367 17.072C109.367 18.0107 108.897 19.248 107.959 20.784C107.063 22.32 106.444 23.152 106.103 23.28C104.268 22.256 102.284 21.744 100.151 21.744C98.9985 21.744 98.4225 22.1493 98.4225 22.96C98.4225 23.472 98.6358 23.92 99.0625 24.304C99.5318 24.6453 100.364 25.0933 101.559 25.648C102.753 26.16 103.735 26.6293 104.503 27.056C105.313 27.4827 106.209 28.08 107.191 28.848C109.239 30.4693 110.263 32.5813 110.263 35.184C110.263 38.5973 109.132 41.3707 106.871 43.504C104.609 45.5947 101.196 46.64 96.6305 46.64C93.6012 46.64 90.8492 46.128 88.3745 45.104C85.8998 44.08 84.6625 42.672 84.6625 40.88C84.6625 39.6853 84.9398 38.4267 85.4945 37.104C86.0918 35.7813 86.6892 34.9067 87.2865 34.48ZM125.443 45.552C125.443 45.936 123.651 46.128 120.067 46.128C116.526 46.128 114.755 45.8293 114.755 45.232V1.392C114.755 1.09333 115.416 0.879997 116.739 0.751999C118.062 0.623998 119.171 0.559998 120.067 0.559998C123.651 0.559998 125.443 0.943998 125.443 1.712V14.512C127.832 13.7867 129.646 13.424 130.883 13.424C134.126 13.424 136.686 14.2987 138.563 16.048C140.44 17.7547 141.379 20.9547 141.379 25.648V45.488C141.379 45.872 139.715 46.064 136.387 46.064C132.632 45.936 130.755 45.7227 130.755 45.424V26.608C130.755 24.5173 130.072 23.472 128.707 23.472C127.768 23.472 126.68 23.92 125.443 24.816V45.552Z" fill="#188D55"/>
<path d="M165.442 0.623997C168.556 0.623997 171.287 1.072 173.634 1.968C176.023 2.82133 177.218 3.99466 177.218 5.488C177.218 6.98133 176.642 8.83733 175.49 11.056C174.38 13.232 173.442 14.32 172.674 14.32C172.46 14.32 172.204 14.2133 171.906 14C171.65 13.744 171.01 13.488 169.986 13.232C169.004 12.9333 168.151 12.784 167.426 12.784C164.951 12.784 162.946 13.6587 161.41 15.408C159.916 17.1573 159.17 19.8453 159.17 23.472C159.17 27.056 159.938 29.7227 161.474 31.472C163.052 33.2213 165.036 34.096 167.426 34.096C168.407 34.096 169.495 33.968 170.69 33.712C171.927 33.4133 172.802 33.008 173.314 32.496C173.399 32.4107 173.57 32.368 173.826 32.368C174.082 32.368 174.551 32.8587 175.234 33.84C175.959 34.7787 176.62 36.0373 177.218 37.616C177.815 39.152 178.114 40.3467 178.114 41.2C178.114 42.864 176.834 44.1867 174.274 45.168C171.714 46.1493 168.684 46.64 165.186 46.64C159.554 46.64 154.924 44.656 151.298 40.688C147.671 36.72 145.858 31.1307 145.858 23.92C145.858 16.6667 147.714 10.9707 151.426 6.832C155.18 2.69333 159.852 0.623997 165.442 0.623997ZM185.445 42.224C182.799 39.28 181.477 35.2053 181.477 30C181.477 24.7947 182.799 20.72 185.445 17.776C188.133 14.832 191.738 13.36 196.26 13.36C200.783 13.36 204.367 14.832 207.013 17.776C209.658 20.72 210.981 24.7947 210.981 30C210.981 35.2053 209.658 39.28 207.013 42.224C204.367 45.168 200.783 46.64 196.26 46.64C191.738 46.64 188.133 45.168 185.445 42.224ZM196.26 24.048C193.871 24.048 192.677 26.0107 192.677 29.936C192.677 33.8613 193.871 35.824 196.26 35.824C198.693 35.824 199.909 33.8613 199.909 29.936C199.909 26.0107 198.693 24.048 196.26 24.048Z" fill="#8C2618"/>
</svg>
